<?xml version="1.0" encoding="utf-8"?>
<svg width="85" height="87" viewBox="0 0 85 87" fill="none" xmlns="http://www.w3.org/2000/svg">
  <path d="M42.6631 0.23999C19.4709 0.23999 0.613007 19.6008 0.613007 43.4114C0.613007 67.2221 19.4709 86.5829 42.6631 86.5829C65.8553 86.5829 84.7133 67.2221 84.7133 43.4114C84.7133 19.6008 65.8427 0.23999 42.6631 0.23999ZM67.0466 18.4558L67.3001 18.729C59.3412 16.9725 51.205 15.4112 47.8212 8.51517C55.2858 9.63414 61.9519 13.2253 67.0466 18.4558ZM42.6631 2.84225C42.5744 2.84225 42.473 2.85526 42.3843 2.85526C42.473 2.85526 42.5617 2.84225 42.6631 2.84225ZM3.28708 46.6513C3.19837 45.5843 3.14767 44.5044 3.14767 43.4114C3.14767 42.2665 3.21104 41.1345 3.29975 40.0155C3.21104 41.1345 3.14767 42.2665 3.14767 43.4114C3.14767 44.5044 3.19837 45.5843 3.28708 46.6513ZM72.3694 61.2499C71.7865 62.1477 71.1274 62.9674 70.3037 63.5789C63.9924 57.2164 52.2315 56.9952 45.0457 51.6086C41.1043 46.2479 36.9601 41.0954 34.4128 34.1604C29.2421 57.2945 49.0885 64.1384 59.2272 74.04C55.8054 76.1088 50.6347 77.5921 45.2612 78.1776C42.3336 75.2371 35.0845 73.0902 32.0936 71.1906C31.4599 70.9954 31.3458 70.592 30.7629 71.1906C31.7387 73.1032 32.8286 75.3412 34.1847 77.514C28.1522 75.9267 22.766 72.6869 18.4824 68.289C16.9363 66.7017 15.5295 64.9581 14.3002 63.0845L14.5283 62.9804C20.5355 65.5046 20.8016 70.7222 27.4678 67.5344C21.1438 62.5771 14.5917 56.1885 9.04077 49.9822C8.6479 47.8353 8.43245 45.6234 8.43245 43.3594C8.43245 40.627 8.73661 37.9857 9.30691 35.4355C12.0063 41.3947 14.4396 47.6141 20.2313 50.0993C21.7141 53.7554 23.7418 56.774 25.5415 60.0659C35.3126 61.6923 37.8599 74.1181 50.3558 71.0344C46.275 68.9786 44.8303 66.7277 40.6101 64.5548C37.4417 57.1774 30.4587 53.7554 26.8722 48.0955C21.9676 40.3538 22.766 27.3555 14.4523 23.4001C15.6436 21.6175 16.987 19.9521 18.4697 18.4298C19.4836 17.3889 20.5735 16.413 21.7141 15.5022C26.1371 17.8443 31.0417 19.6268 34.4001 23.1659C38.3669 31.2329 41.2691 39.5991 48.5816 44.1141C56.7939 49.1755 68.3266 49.3706 73.7762 58.4915C73.3579 59.4414 72.8764 60.3521 72.3694 61.2499ZM82.1659 43.4114C82.1659 44.1141 82.1532 44.8037 82.1152 45.4933C82.1532 44.8037 82.1659 44.101 82.1659 43.4114C82.1659 42.7088 82.1532 42.0192 82.1152 41.3296C82.1532 42.0062 82.1659 42.7088 82.1659 43.4114ZM77.0586 45.194C76.9445 47.4189 76.6277 49.5918 76.1334 51.6996C71.3682 46.0267 64.588 42.6438 56.1222 41.1475C49.38 34.9411 43.9178 27.2905 39.2794 18.716C35.6041 16.3089 32.0936 13.7197 28.3423 11.3907C31.9415 9.68619 35.8829 8.59324 40.0271 8.25494C44.6782 11.5598 47.3776 18.0004 51.6739 21.7086C53.2707 23.0878 56.7305 25.7812 58.7583 26.1975C62.9151 27.0302 66.4637 22.6194 71.3429 23.8685C72.6102 25.8072 73.6748 27.889 74.5492 30.0879C66.0201 33.2236 57.1614 30.3221 51.2303 26.1975C54.8929 38.1159 69.8981 37.2311 77.0586 45.194Z" style="fill: rgb(0, 0, 0);"/>
</svg>